{
    "asset" : {
        "generator" : "Khronos glTF Blender I/O v1.0.5",
        "version" : "2.0"
    },
    "scene" : 0,
    "scenes" : [
        {
            "name" : "Scene",
            "nodes" : [
                0,
                1,
                2,
                3,
                4,
                5,
                6,
                7,
                8,
                9
            ]
        }
    ],
    "nodes" : [
        {
            "mesh" : 0,
            "name" : "SeatStayLeft",
            "rotation" : [
                0.7071068286895752,
                0,
                0,
                0.7071067094802856
            ]
        },
        {
            "mesh" : 1,
            "name" : "SeatCushion",
            "rotation" : [
                0.7071068286895752,
                0,
                0,
                0.7071067094802856
            ]
        },
        {
            "mesh" : 2,
            "name" : "SeatPost",
            "rotation" : [
                0.7071068286895752,
                0,
                0,
                0.7071067094802856
            ]
        },
        {
            "mesh" : 3,
            "name" : "ChainStayLeft",
            "rotation" : [
                0.7071068286895752,
                0,
                0,
                0.7071067094802856
            ]
        },
        {
            "mesh" : 4,
            "name" : "SeatStayRight",
            "rotation" : [
                0.7071068286895752,
                0,
                0,
                0.7071067094802856
            ]
        },
        {
            "mesh" : 5,
            "name" : "ChainStayRight",
            "rotation" : [
                0.7071068286895752,
                0,
                0,
                0.7071067094802856
            ]
        },
        {
            "mesh" : 6,
            "name" : "TopTube",
            "rotation" : [
                0.7071068286895752,
                0,
                0,
                0.7071067094802856
            ]
        },
        {
            "mesh" : 7,
            "name" : "HeadTube",
            "rotation" : [
                0.7071068286895752,
                0,
                0,
                0.7071067094802856
            ]
        },
        {
            "mesh" : 8,
            "name" : "DownTube",
            "rotation" : [
                0.7071068286895752,
                0,
                0,
                0.7071067094802856
            ]
        },
        {
            "mesh" : 9,
            "name" : "SeatTube",
            "rotation" : [
                0.7071068286895752,
                0,
                0,
                0.7071067094802856
            ]
        }
    ],
    "materials" : [
        {
            "doubleSided" : true,
            "name" : "Paint",
            "pbrMetallicRoughness" : {
                "baseColorFactor" : [
                    0.2588520050048828,
                    0.19265800714492798,
                    0.09605000168085098,
                    1
                ],
                "metallicFactor" : 0,
                "roughnessFactor" : 0
            }
        },
        {
            "doubleSided" : true,
            "name" : "Cushion",
            "pbrMetallicRoughness" : {
                "baseColorFactor" : [
                    0.1120000034570694,
                    0.1120000034570694,
                    0.1120000034570694,
                    1
                ],
                "metallicFactor" : 0,
                "roughnessFactor" : 0.771335244178772
            }
        },
        {
            "doubleSided" : true,
            "name" : "Chrome",
            "pbrMetallicRoughness" : {
                "baseColorFactor" : [
                    0.8500000238418579,
                    0.8500000238418579,
                    0.8500000238418579,
                    1
                ],
                "metallicFactor" : 0,
                "roughnessFactor" : 0
            }
        }
    ],
    "meshes" : [
        {
            "name" : "SeatStayLeft",
            "primitives" : [
                {
                    "attributes" : {
                        "POSITION" : 0,
                        "NORMAL" : 1
                    },
                    "indices" : 2,
                    "material" : 0
                }
            ]
        },
        {
            "name" : "SeatCushion",
            "primitives" : [
                {
                    "attributes" : {
                        "POSITION" : 3,
                        "NORMAL" : 4
                    },
                    "indices" : 5,
                    "material" : 1
                }
            ]
        },
        {
            "name" : "SeatPost",
            "primitives" : [
                {
                    "attributes" : {
                        "POSITION" : 6,
                        "NORMAL" : 7
                    },
                    "indices" : 8,
                    "material" : 2
                }
            ]
        },
        {
            "name" : "ChainStayLeft",
            "primitives" : [
                {
                    "attributes" : {
                        "POSITION" : 9,
                        "NORMAL" : 10
                    },
                    "indices" : 11,
                    "material" : 0
                }
            ]
        },
        {
            "name" : "SeatStayRight",
            "primitives" : [
                {
                    "attributes" : {
                        "POSITION" : 12,
                        "NORMAL" : 13
                    },
                    "indices" : 14,
                    "material" : 0
                }
            ]
        },
        {
            "name" : "ChainStayRight",
            "primitives" : [
                {
                    "attributes" : {
                        "POSITION" : 15,
                        "NORMAL" : 16
                    },
                    "indices" : 17,
                    "material" : 0
                }
            ]
        },
        {
            "name" : "TopTube",
            "primitives" : [
                {
                    "attributes" : {
                        "POSITION" : 18,
                        "NORMAL" : 19
                    },
                    "indices" : 20,
                    "material" : 0
                }
            ]
        },
        {
            "name" : "Cylinder.052_Cylinder.028",
            "primitives" : [
                {
                    "attributes" : {
                        "POSITION" : 21,
                        "NORMAL" : 22
                    },
                    "indices" : 23,
                    "material" : 0
                }
            ]
        },
        {
            "name" : "DownTube",
            "primitives" : [
                {
                    "attributes" : {
                        "POSITION" : 24,
                        "NORMAL" : 25
                    },
                    "indices" : 26,
                    "material" : 0
                }
            ]
        },
        {
            "name" : "SeatTube",
            "primitives" : [
                {
                    "attributes" : {
                        "POSITION" : 27,
                        "NORMAL" : 28
                    },
                    "indices" : 20,
                    "material" : 0
                }
            ]
        }
    ],
    "accessors" : [
        {
            "bufferView" : 0,
            "componentType" : 5126,
            "count" : 26,
            "max" : [
                1.3119720220565796,
                -0.004616000223904848,
                -0.018567999824881554
            ],
            "min" : [
                -0.1032710000872612,
                -0.1866690069437027,
                -1.1846740245819092
            ],
            "type" : "VEC3"
        },
        {
            "bufferView" : 1,
            "componentType" : 5126,
            "count" : 26,
            "type" : "VEC3"
        },
        {
            "bufferView" : 2,
            "componentType" : 5123,
            "count" : 144,
            "type" : "SCALAR"
        },
        {
            "bufferView" : 3,
            "componentType" : 5126,
            "count" : 42,
            "max" : [
                1.7400000095367432,
                0.4000000059604645,
                -1.440000057220459
            ],
            "min" : [
                0.6399999856948853,
                -0.4000000059604645,
                -1.840000033378601
            ],
            "type" : "VEC3"
        },
        {
            "bufferView" : 4,
            "componentType" : 5126,
            "count" : 42,
            "type" : "VEC3"
        },
        {
            "bufferView" : 5,
            "componentType" : 5123,
            "count" : 240,
            "type" : "SCALAR"
        },
        {
            "bufferView" : 6,
            "componentType" : 5126,
            "count" : 18,
            "max" : [
                1.4061030149459839,
                0.04500000178813934,
                -0.8948799967765808
            ],
            "min" : [
                1.1211309432983398,
                -0.04500000178813934,
                -1.6117960214614868
            ],
            "type" : "VEC3"
        },
        {
            "bufferView" : 7,
            "componentType" : 5126,
            "count" : 18,
            "type" : "VEC3"
        },
        {
            "bufferView" : 8,
            "componentType" : 5123,
            "count" : 96,
            "type" : "SCALAR"
        },
        {
            "bufferView" : 9,
            "componentType" : 5126,
            "count" : 26,
            "max" : [
                1.6550400257110596,
                -0.028362000361084938,
                0.0759039968252182
            ],
            "min" : [
                -0.07505500316619873,
                -0.17163799703121185,
                -0.054159000515937805
            ],
            "type" : "VEC3"
        },
        {
            "bufferView" : 10,
            "componentType" : 5126,
            "count" : 26,
            "type" : "VEC3"
        },
        {
            "bufferView" : 11,
            "componentType" : 5123,
            "count" : 144,
            "type" : "SCALAR"
        },
        {
            "bufferView" : 12,
            "componentType" : 5126,
            "count" : 26,
            "max" : [
                1.3119720220565796,
                0.1866690069437027,
                -0.018567999824881554
            ],
            "min" : [
                -0.1032710000872612,
                0.004616000223904848,
                -1.1846740245819092
            ],
            "type" : "VEC3"
        },
        {
            "bufferView" : 13,
            "componentType" : 5126,
            "count" : 26,
            "type" : "VEC3"
        },
        {
            "bufferView" : 14,
            "componentType" : 5123,
            "count" : 144,
            "type" : "SCALAR"
        },
        {
            "bufferView" : 15,
            "componentType" : 5126,
            "count" : 26,
            "max" : [
                1.6550400257110596,
                0.17163799703121185,
                0.0759039968252182
            ],
            "min" : [
                -0.07505500316619873,
                0.028362000361084938,
                -0.054159000515937805
            ],
            "type" : "VEC3"
        },
        {
            "bufferView" : 16,
            "componentType" : 5126,
            "count" : 26,
            "type" : "VEC3"
        },
        {
            "bufferView" : 17,
            "componentType" : 5123,
            "count" : 144,
            "type" : "SCALAR"
        },
        {
            "bufferView" : 18,
            "componentType" : 5126,
            "count" : 18,
            "max" : [
                3.1430790424346924,
                0.08749999850988388,
                -1.097156047821045
            ],
            "min" : [
                1.2800849676132202,
                -0.08749999850988388,
                -1.8317270278930664
            ],
            "type" : "VEC3"
        },
        {
            "bufferView" : 19,
            "componentType" : 5126,
            "count" : 18,
            "type" : "VEC3"
        },
        {
            "bufferView" : 20,
            "componentType" : 5123,
            "count" : 96,
            "type" : "SCALAR"
        },
        {
            "bufferView" : 21,
            "componentType" : 5126,
            "count" : 18,
            "max" : [
                3.385272979736328,
                0.10000000149011612,
                -1.3648439645767212
            ],
            "min" : [
                3.0263240337371826,
                -0.10000000149011612,
                -1.9030940532684326
            ],
            "type" : "VEC3"
        },
        {
            "bufferView" : 22,
            "componentType" : 5126,
            "count" : 18,
            "type" : "VEC3"
        },
        {
            "bufferView" : 23,
            "componentType" : 5123,
            "count" : 96,
            "type" : "SCALAR"
        },
        {
            "bufferView" : 24,
            "componentType" : 5126,
            "count" : 18,
            "max" : [
                3.2956929206848145,
                0.10000000149011612,
                0.0747390016913414
            ],
            "min" : [
                1.536316990852356,
                -0.10000000149011612,
                -1.6294339895248413
            ],
            "type" : "VEC3"
        },
        {
            "bufferView" : 25,
            "componentType" : 5126,
            "count" : 18,
            "type" : "VEC3"
        },
        {
            "bufferView" : 26,
            "componentType" : 5123,
            "count" : 96,
            "type" : "SCALAR"
        },
        {
            "bufferView" : 27,
            "componentType" : 5126,
            "count" : 18,
            "max" : [
                1.7088229656219482,
                0.07500000298023224,
                0.08161900192499161
            ],
            "min" : [
                1.1611779928207397,
                -0.07500000298023224,
                -1.3816189765930176
            ],
            "type" : "VEC3"
        },
        {
            "bufferView" : 28,
            "componentType" : 5126,
            "count" : 18,
            "type" : "VEC3"
        }
    ],
    "bufferViews" : [
        {
            "buffer" : 0,
            "byteLength" : 312,
            "byteOffset" : 0
        },
        {
            "buffer" : 0,
            "byteLength" : 312,
            "byteOffset" : 312
        },
        {
            "buffer" : 0,
            "byteLength" : 288,
            "byteOffset" : 624
        },
        {
            "buffer" : 0,
            "byteLength" : 504,
            "byteOffset" : 912
        },
        {
            "buffer" : 0,
            "byteLength" : 504,
            "byteOffset" : 1416
        },
        {
            "buffer" : 0,
            "byteLength" : 480,
            "byteOffset" : 1920
        },
        {
            "buffer" : 0,
            "byteLength" : 216,
            "byteOffset" : 2400
        },
        {
            "buffer" : 0,
            "byteLength" : 216,
            "byteOffset" : 2616
        },
        {
            "buffer" : 0,
            "byteLength" : 192,
            "byteOffset" : 2832
        },
        {
            "buffer" : 0,
            "byteLength" : 312,
            "byteOffset" : 3024
        },
        {
            "buffer" : 0,
            "byteLength" : 312,
            "byteOffset" : 3336
        },
        {
            "buffer" : 0,
            "byteLength" : 288,
            "byteOffset" : 3648
        },
        {
            "buffer" : 0,
            "byteLength" : 312,
            "byteOffset" : 3936
        },
        {
            "buffer" : 0,
            "byteLength" : 312,
            "byteOffset" : 4248
        },
        {
            "buffer" : 0,
            "byteLength" : 288,
            "byteOffset" : 4560
        },
        {
            "buffer" : 0,
            "byteLength" : 312,
            "byteOffset" : 4848
        },
        {
            "buffer" : 0,
            "byteLength" : 312,
            "byteOffset" : 5160
        },
        {
            "buffer" : 0,
            "byteLength" : 288,
            "byteOffset" : 5472
        },
        {
            "buffer" : 0,
            "byteLength" : 216,
            "byteOffset" : 5760
        },
        {
            "buffer" : 0,
            "byteLength" : 216,
            "byteOffset" : 5976
        },
        {
            "buffer" : 0,
            "byteLength" : 192,
            "byteOffset" : 6192
        },
        {
            "buffer" : 0,
            "byteLength" : 216,
            "byteOffset" : 6384
        },
        {
            "buffer" : 0,
            "byteLength" : 216,
            "byteOffset" : 6600
        },
        {
            "buffer" : 0,
            "byteLength" : 192,
            "byteOffset" : 6816
        },
        {
            "buffer" : 0,
            "byteLength" : 216,
            "byteOffset" : 7008
        },
        {
            "buffer" : 0,
            "byteLength" : 216,
            "byteOffset" : 7224
        },
        {
            "buffer" : 0,
            "byteLength" : 192,
            "byteOffset" : 7440
        },
        {
            "buffer" : 0,
            "byteLength" : 216,
            "byteOffset" : 7632
        },
        {
            "buffer" : 0,
            "byteLength" : 216,
            "byteOffset" : 7848
        }
    ],
    "buffers" : [
        {
            "byteLength" : 8064,
            "uri" : "data:application/octet-stream;base64,"
        }
    ]
}
