{
    "asset" : {
        "generator" : "Khronos glTF Blender I/O v1.0.5",
        "version" : "2.0"
    },
    "scene" : 0,
    "scenes" : [
        {
            "name" : "Scene",
            "nodes" : [
                0,
                1,
                2,
                3
            ]
        }
    ],
    "nodes" : [
        {
            "mesh" : 0,
            "name" : "Handlebar",
            "rotation" : [
                1,
                0,
                0,
                -1.3435885648505064e-07
            ]
        },
        {
            "mesh" : 1,
            "name" : "GripRight",
            "rotation" : [
                1,
                0,
                0,
                -1.3435885648505064e-07
            ]
        },
        {
            "mesh" : 2,
            "name" : "GripLeft",
            "rotation" : [
                0,
                1,
                0,
                0
            ],
            "scale" : [
                -0.9999999403953552,
                -1,
                -1
            ]
        },
        {
            "mesh" : 3,
            "name" : "Fork",
            "rotation" : [
                1,
                0,
                0,
                -1.3435885648505064e-07
            ]
        }
    ],
    "materials" : [
        {
            "doubleSided" : true,
            "name" : "Chrome",
            "pbrMetallicRoughness" : {
                "baseColorFactor" : [
                    0.6800000071525574,
                    0.6800000071525574,
                    0.6800000071525574,
                    1
                ],
                "metallicFactor" : 0,
                "roughnessFactor" : 0
            }
        },
        {
            "doubleSided" : true,
            "name" : "Rubber",
            "pbrMetallicRoughness" : {
                "baseColorFactor" : [
                    0.08959999680519104,
                    0.08959999680519104,
                    0.08959999680519104,
                    1
                ],
                "metallicFactor" : 0,
                "roughnessFactor" : 0.7761497497558594
            }
        },
        {
            "doubleSided" : true,
            "name" : "Paint",
            "pbrMetallicRoughness" : {
                "baseColorFactor" : [
                    0.20708200335502625,
                    0.15412600338459015,
                    0.07683999836444855,
                    1
                ],
                "metallicFactor" : 0,
                "roughnessFactor" : 0.257572740316391
            }
        }
    ],
    "meshes" : [
        {
            "name" : "Handlebar",
            "primitives" : [
                {
                    "attributes" : {
                        "POSITION" : 0,
                        "NORMAL" : 1
                    },
                    "indices" : 2,
                    "material" : 0
                }
            ]
        },
        {
            "name" : "Grip",
            "primitives" : [
                {
                    "attributes" : {
                        "POSITION" : 3,
                        "NORMAL" : 4
                    },
                    "indices" : 5,
                    "material" : 1
                }
            ]
        },
        {
            "name" : "GripLeft",
            "primitives" : [
                {
                    "attributes" : {
                        "POSITION" : 6,
                        "NORMAL" : 7
                    },
                    "indices" : 5,
                    "material" : 1
                }
            ]
        },
        {
            "name" : "Fork",
            "primitives" : [
                {
                    "attributes" : {
                        "POSITION" : 8,
                        "NORMAL" : 9
                    },
                    "indices" : 10,
                    "material" : 2
                }
            ]
        }
    ],
    "accessors" : [
        {
            "bufferView" : 0,
            "componentType" : 5126,
            "count" : 550,
            "max" : [
                0.5150560140609741,
                0.08039499819278717,
                0.9165350198745728
            ],
            "min" : [
                -0.06748899817466736,
                -1.2223299741744995,
                -0.9184650182723999
            ],
            "type" : "VEC3"
        },
        {
            "bufferView" : 1,
            "componentType" : 5126,
            "count" : 550,
            "type" : "VEC3"
        },
        {
            "bufferView" : 2,
            "componentType" : 5123,
            "count" : 576,
            "type" : "SCALAR"
        },
        {
            "bufferView" : 3,
            "componentType" : 5126,
            "count" : 96,
            "max" : [
                0.5353099703788757,
                -1.117993950843811,
                -0.7967939972877502
            ],
            "min" : [
                0.3816240131855011,
                -1.318079948425293,
                -1.7051349878311157
            ],
            "type" : "VEC3"
        },
        {
            "bufferView" : 4,
            "componentType" : 5126,
            "count" : 96,
            "type" : "VEC3"
        },
        {
            "bufferView" : 5,
            "componentType" : 5123,
            "count" : 96,
            "type" : "SCALAR"
        },
        {
            "bufferView" : 6,
            "componentType" : 5126,
            "count" : 96,
            "max" : [
                0.5353099703788757,
                -1.117993950843811,
                -0.7967939972877502
            ],
            "min" : [
                0.3816240131855011,
                -1.318079948425293,
                -1.7051349878311157
            ],
            "type" : "VEC3"
        },
        {
            "bufferView" : 7,
            "componentType" : 5126,
            "count" : 96,
            "type" : "VEC3"
        },
        {
            "bufferView" : 8,
            "componentType" : 5126,
            "count" : 540,
            "max" : [
                0.29218900203704834,
                1.579522967338562,
                0.2873550057411194
            ],
            "min" : [
                -0.06919500231742859,
                -0.0005380000220611691,
                -0.2976450026035309
            ],
            "type" : "VEC3"
        },
        {
            "bufferView" : 9,
            "componentType" : 5126,
            "count" : 540,
            "type" : "VEC3"
        },
        {
            "bufferView" : 10,
            "componentType" : 5123,
            "count" : 576,
            "type" : "SCALAR"
        }
    ],
    "bufferViews" : [
        {
            "buffer" : 0,
            "byteLength" : 6600,
            "byteOffset" : 0
        },
        {
            "buffer" : 0,
            "byteLength" : 6600,
            "byteOffset" : 6600
        },
        {
            "buffer" : 0,
            "byteLength" : 1152,
            "byteOffset" : 13200
        },
        {
            "buffer" : 0,
            "byteLength" : 1152,
            "byteOffset" : 14352
        },
        {
            "buffer" : 0,
            "byteLength" : 1152,
            "byteOffset" : 15504
        },
        {
            "buffer" : 0,
            "byteLength" : 192,
            "byteOffset" : 16656
        },
        {
            "buffer" : 0,
            "byteLength" : 1152,
            "byteOffset" : 16848
        },
        {
            "buffer" : 0,
            "byteLength" : 1152,
            "byteOffset" : 18000
        },
        {
            "buffer" : 0,
            "byteLength" : 6480,
            "byteOffset" : 19152
        },
        {
            "buffer" : 0,
            "byteLength" : 6480,
            "byteOffset" : 25632
        },
        {
            "buffer" : 0,
            "byteLength" : 1152,
            "byteOffset" : 32112
        }
    ],
    "buffers" : [
        {
            "byteLength" : 33264,
            "uri" : "data:application/octet-stream;base64,"
        }
    ]
}
