{
    "asset" : {
        "generator" : "Khronos glTF Blender I/O v1.0.5",
        "version" : "2.0"
    },
    "scene" : 0,
    "scenes" : [
        {
            "name" : "Scene",
            "nodes" : [
                0,
                1
            ]
        }
    ],
    "nodes" : [
        {
            "mesh" : 0,
            "name" : "Rim",
            "rotation" : [
                0.7071068286895752,
                0,
                0,
                0.7071067094802856
            ]
        },
        {
            "mesh" : 1,
            "name" : "Tire",
            "rotation" : [
                0.7071068286895752,
                0,
                0,
                0.7071067094802856
            ]
        }
    ],
    "materials" : [
        {
            "doubleSided" : true,
            "name" : "Chrome",
            "pbrMetallicRoughness" : {
                "baseColorFactor" : [
                    0.6800000071525574,
                    0.6800000071525574,
                    0.6800000071525574,
                    1
                ],
                "metallicFactor" : 0,
                "roughnessFactor" : 0
            }
        },
        {
            "doubleSided" : true,
            "name" : "Rubber",
            "pbrMetallicRoughness" : {
                "baseColorFactor" : [
                    0.08959999680519104,
                    0.08959999680519104,
                    0.08959999680519104,
                    1
                ],
                "metallicFactor" : 0,
                "roughnessFactor" : 0.7761497497558594
            }
        }
    ],
    "meshes" : [
        {
            "name" : "Rim",
            "primitives" : [
                {
                    "attributes" : {
                        "POSITION" : 0,
                        "NORMAL" : 1
                    },
                    "indices" : 2,
                    "material" : 0
                }
            ]
        },
        {
            "name" : "Tire",
            "primitives" : [
                {
                    "attributes" : {
                        "POSITION" : 3,
                        "NORMAL" : 4
                    },
                    "indices" : 5,
                    "material" : 1
                }
            ]
        }
    ],
    "accessors" : [
        {
            "bufferView" : 0,
            "componentType" : 5126,
            "count" : 6134,
            "max" : [
                1.2870420217514038,
                0.06298600137233734,
                1.2870420217514038
            ],
            "min" : [
                -1.2870420217514038,
                -0.06298600137233734,
                -1.2870420217514038
            ],
            "type" : "VEC3"
        },
        {
            "bufferView" : 1,
            "componentType" : 5126,
            "count" : 6134,
            "type" : "VEC3"
        },
        {
            "bufferView" : 2,
            "componentType" : 5123,
            "count" : 8520,
            "type" : "SCALAR"
        },
        {
            "bufferView" : 3,
            "componentType" : 5126,
            "count" : 3072,
            "max" : [
                1.40556001663208,
                0.08415000140666962,
                1.4055589437484741
            ],
            "min" : [
                -1.40556001663208,
                -0.08415000140666962,
                -1.40556001663208
            ],
            "type" : "VEC3"
        },
        {
            "bufferView" : 4,
            "componentType" : 5126,
            "count" : 3072,
            "type" : "VEC3"
        },
        {
            "bufferView" : 5,
            "componentType" : 5123,
            "count" : 4608,
            "type" : "SCALAR"
        }
    ],
    "bufferViews" : [
        {
            "buffer" : 0,
            "byteLength" : 73608,
            "byteOffset" : 0
        },
        {
            "buffer" : 0,
            "byteLength" : 73608,
            "byteOffset" : 73608
        },
        {
            "buffer" : 0,
            "byteLength" : 17040,
            "byteOffset" : 147216
        },
        {
            "buffer" : 0,
            "byteLength" : 36864,
            "byteOffset" : 164256
        },
        {
            "buffer" : 0,
            "byteLength" : 36864,
            "byteOffset" : 201120
        },
        {
            "buffer" : 0,
            "byteLength" : 9216,
            "byteOffset" : 237984
        }
    ],
    "buffers" : [
        {
            "byteLength" : 247200,
            "uri" : "data:application/octet-stream;base64,"
        }
    ]
}
